<svg viewBox="0 0 14 14" xmlns="http://www.w3.org/2000/svg"><path d="m10.238045 1.5908152c-.06829-.002-.136708.007-.200328.0269-.1240211.0393-.2523921.11643-.3148021.23052-.126621.23149-.138233.54194-.04943.79038.243635.6816.9481891 1.10219 1.4786141 1.59029.180857.16642 1.885842 1.37283 1.013783 2.69265-.03302.05-.07088.0964-.113606.13953.116073.16672.22603.33723.313934.51912.04077-.0315.08-.0634.117942-.0953.640165-.53857.598473-1.60621.336482-2.14406-.232565-.47745-.593091-.88883-.966952-1.26616-.337384-.34053-1.491417-1.00142-1.624307-1.41523-.06297-.19608-.118571-.50789.05724-.61532.09395-.0574.339577.01.460495.17073.06984.093.184202.23123.168241-.003-.01718-.25168-.299629-.5315-.476972-.58758-.06364-.0201-.132037-.032-.200328-.0338zm-.4986531 3.34437c-.02139.00098-.02969.0293-.02688.0971.02334.56444-.399655.7258-.462229.66904-.07095-.0644-.09612-.0263-.08672.0511.01244.10257.02185.12087.113606.28166.01536.0269.02408.0872-.01908.0208-.257195-.396-.128226-.71547-.04249-.93251.04901-.12407-.0085-.13593-.07458-.0563-.322034.38816-.640214.68379-.918388 1.20722-.03943.0742-.0405.125.06417.0338.258308-.22503.459129-.0457.375507.1352-.221567.47925-.6113.59398-.751014.65431-.522972.2258-.580506.20885-.809985 1.13876-.142849.57887.04771 1.9938598.222876 2.7645898.01694.0745.03509.14616.05463.2158.152746-.14606.306489-.3015.503856-.37526-.04605-.21187-.08655-.47415-.115341-.80598-.02308-1.1012598-.0074-2.1678698 1.505498-1.9352098 1.1795361.16365 1.9269141.0595 2.4516371-.14992-.07468-.18993-.16559-.37253-.269706-.54858-.708073.22823-1.6551741.14224-2.0102211-.0529-.636803-.34994-.141953-.59871-.01734-.59452.302973.0102.43316.25117.454425.30332.06238.15302.09972.10383.1812491.0243.570162-.55636.374306-1.60469-.2488931-2.1042-.03353-.0269-.05794-.0424-.07458-.0416zm1.0883641 3.53329c-.238489.008-.512225.0898-.721529.33886-.3482861.41438-.4869261.92555-.5489511 1.3848898.174953.0655.355721.10953.5411461.13087.0622-.6547198.232576-1.0550398.463964-1.2652998.234763-.21333.473717-.15842.522935-.13346.08036.0407.131838.20672.136154.31892.01182.30732.229479.17627.269706-.052.02032-.1153.04913-.54007-.21854-.65084-.09506-.0393-.259394-.0781-.444885-.0719zm-1.3294521 2.4933298c-.0065.11991-.01417.22181-.02862.29726-.121206.63313-.439805 1.32126-1.2488.43852-.03339-.0534-.07479-.11774-.118809-.20366-.1961.0595-.36946.18593-.485644.35446.120336.24649.249633.42899.362498.53731.552533.5303 1.200233.40501 1.515037.15426.238834-.19023.476938-.50114.5593591-1.48195-.1883621-.0122-.3741691-.0438-.5550231-.0962zm1.8827401-8.1108898c-.202663.006-.430509.0825-.663425.28512.140236.12173.294565.22874.446619.33713.127263-.0837.279057-.12287.450956-.104.479834.0527.647573.36021.719794.69158.03985.18285.180785.32097.180382-.0199-.000308-.25983-.0074-.55878-.445752-.93857-.114687-.0994-.352441-.24729-.648682-.25133-.01328-.0002-.02638-.00042-.03989 0zm-1.052808.75137c-.01461.0228-.02967.0445-.04423.0685-.144334.23818-.262102 1.14601.150896 1.99155.1923.39369.48011.86282.85855 1.39095.947915 1.32286.874316 2.64747-.112739 3.1389698.08526.18218.144674.37732.163905.57718.604893-.26939.921223-.68334 1.074489-1.1283598.403666-1.17207-.116619-2.11197-.267105-2.33127l-.977359-1.42392c-.443117-.64573-.532832-1.37836-.373773-1.88667-.158918-.13093-.319226-.26025-.472636-.39693zm-2.2435041 5.07419c-.119316.004-.121151.0479-.152631.11353-.103313.21542-.114156.44695-.122278.67078-.008.22042.05469.30011.125747.33452.111019.0538.525318.4584998.849011.7288498.566179.47286 1.2883271.52853 1.8150961.45845.02688-.20827-.04231-.41752-.149163-.59972-.01933.002-.03841.003-.0581.004-.8850281.0522-2.0323961-.6069698-1.9070211-1.5079498.01652-.11869-.07918-.12475-.106668-.14559-.06873-.0521-.155932-.0521-.235017-.0563-.02226-.001-.04193-.001-.05897-.00086zm-5.539814-5.82556c-.296241.004-.533995.15195-.648683.25133-.438347.37979-.444577.67874-.444885.93857-.000402.3409.139664.20278.179515.0199.07222-.33137.240828-.63892.720662-.69158.887965-.0975 1.239715 1.35087.439682 2.51672l-.791774 1.1535c.137358.13146.309312.22531.489113.29119.05637-.0923.117523-.18476.183851-.27732.37844-.52813.66625-.99726.85855-1.39095.412998-.84554.295231-1.75337.150897-1.99155-.39055-.64451-.801189-.82442-1.136928-.81984zm-.915787 4.80119c-.184478.42081-.373116 1.14478-.08239 1.98894.181474.5269098.591781 1.0104598 1.438721 1.2618298.226013.0671.548441.11871.900177.10053-.01418-.20709-.01893-.41529-.03469-.62225-.09407.009-.187266.0114-.277511.006-1.368175-.0806-1.869404-1.1532898-1.400564-2.4144498-.193169-.0857-.374652-.19427-.543748-.32066zm4.25199 1.02437c-.01705-.00052-.03671-.00032-.05897.00086-.07909.004-.166289.004-.235017.0563-.02749.0208-.123186.0269-.106669.14559.08305.5968-.392317 1.08733-.979961 1.3354898.02765.2194.04185.44018.0529.66125.218225-.0757.432441-.18863.627869-.35185.323692-.27035.737992-.6750698.84901-.7288498.07106-.0344.133746-.11411.125747-.33452-.0081-.22383-.01896-.45536-.122278-.67078-.03148-.0656-.03329-.10989-.152631-.11353zm2.788119-.53212c-.19075.004-.37685.0619-.548951.27819-.04682.0589-.134506.14498.02602.1638.404341.0474.522582.12619.687707.24699.281746.20611.573777.40456.842073.62051.07514-.20491.177262-.39987.305262-.57631-.131224-.11376-.30665-.26016-.581039-.48792-.01205-.01-.02447-.0628-.02168-.0936.007-.078-.02865-.10829-.132685-.10746-.190948.002-.385953-.0483-.576703-.0442zm1.7639301 1.16043c-.118832.20009-.182963.42556-.228079.65345.0113.0134.02279.0271.03382.0407.309452.3828598.702699.9232198.131818 1.4862898-.104679.10325-.227041.1457-.352959.14906-.000016.00006-.000852-.00005-.000866 0-.04458.19169-.1056901.37842-.1933911.55292.4379271.11477.8568171.0546 1.1690161-.39952.434949-.63266.493486-1.41814-.46223-2.3849998-.03922-.0397-.06458-.0651-.09713-.0979zm-2.2608481 1.5400198c-.406733.001-.611075.28958-.804782.45846-.277751.24214-.345684.74129-.201196 1.14223.04873.13522.155291.49518.482176.53905.274148.0368.410815.0143.183851-.13779-.152977-.10249-.227022-.22581-.294856-.32847-.203874-.30851-.0093-.72976.206399-.89437.660506-.5041.97586.0419 1.380618.26607.01181.007.02371.0126.03556.0191.114343-.14844.182028-.32594.223739-.51045-.01057-.008-.02122-.015-.03122-.0225-.528833-.39853-.901998-.53207-1.180289-.53125zm-2.854895-2.7004498c-.190751-.004-.386623.0457-.57757.0442-.104039-.00083-.139735.0295-.132685.10746.0028.0308-.0096.0836-.02168.0936-.748034.62091-.767388.64627-1.12999 1.0131-.268168.2713-.456756.52795-.579305.7713098.199171.0865.413439.13299.630471.1534.07342-.11861.159682-.22881.24022-.3284598.373279-.46182.905799-.80052 1.4049-1.16563.165126-.1208.283367-.1996.687707-.24699.160523-.0188.07284-.10495.02602-.1638-.172102-.21631-.357334-.27406-.548084-.27819zm.486511 2.7013198c-.27722.002-.647904.13637-1.17075.53038-.257949.19439-.712905.41024-1.018118.1092-.15421-.15209-.237277-.30279-.271441-.44892-.223498-.0322-.441756-.0929-.651284-.17679-.0092.34074.109183.64927.300926.92817.477589.69468 1.20494.46951 1.867997.10227.320161-.17733.58431-.5549 1.007712-.45586.08324-.17581.139534-.36201.182984-.55118-.07392-.0241-.155619-.0379-.248026-.0373zm.84294.48359c-.0562.1839-.12458.36423-.208133.53732.104413.19567.144266.44784.0095.6517-.06783.10266-.141879.22598-.294855.32847-.226965.15205-.0903.17458.183851.13779.326884-.0439.433446-.40383.482175-.53905.13949-.38707.08154-.86571-.172577-1.11623zm-2.884381-9.7323898c-.06829.002-.13669.0137-.200328.0338-.177343.0561-.459794.3359-.476972.58758-.01596.23383.09754.0956.167374.003.120918-.16094.366543-.22814.460495-.17073.175807.10743.120206.41924.05724.61532-.04533.14114-.210609.31106-.420602.48704.118994.11636.221681.24838.313934.38739.28601-.25917.537046-.54253.663425-.8961.0888-.24844.07719-.55802-.04943-.78951-.06241-.11409-.190781-.19119-.314801-.23053-.06362-.0202-.132038-.0287-.200329-.0269zm-.940068 1.95861c-.277661.20149-.541923.38856-.676434.52433-.373861.37733-.734387.78958-.966952 1.26702-.26199102.53786-.30281602 1.6055.337349 2.14407.532327.44786 1.311118.8771 3.210456.61359 1.512889-.23267 1.529449.8348 1.506365 1.9360698-.09727 1.12115-.329554 1.46349-.454424 1.66309-.463905.50619-.765988.49518-.962617.27472-.187536.0994-.382036.18831-.585375.24786.08521.14869.180626.24314.275777.31892.314804.25075.962505.37691 1.515037-.15339.217975-.20921.496513-.69331.653886-1.38576.175164-.77073.366591-2.1857198.223743-2.7645898-.229479-.92992-.287013-.91383-.809986-1.13963-.139714-.0603-.529447-.17419-.751014-.65345-.08362-.18088.117199-.36022.375507-.13519.104677.0912.102736.0404.06331-.0338-.278174-.52343-.595487-.81993-.917521-1.20809-.06604-.0796-.124457-.0677-.07545.0563.08573.21704.214701.53651-.04249.9325-.04315.0665-.03444.006-.01908-.0208.09175-.16079.102033-.17909.114474-.28166.0094-.0774-.01664-.11461-.08759-.0503-.06257.0568-.484698-.10546-.461362-.6699.005-.1205-.02482-.11604-.101465-.0546-.623199.49951-.819054 1.54784-.248893 2.10421.08153.0796.118869.12875.18125-.0243.02126-.0522.151452-.29398.454424-.30419.124608-.004.618591.24545-.01821.59539-.506475.27831-2.217822.33566-2.721343-.42639-.87205902-1.31983.832926-2.52623 1.013783-2.69266.08397-.0773.172552-.15269.262768-.22792-.05828-.17237-.148444-.33592-.287917-.45153zm.320005 4.91819c-.01634-.00011-.03264.00035-.04856.00087-.152842.005-.284486.0382-.365968.0719-.267669.11078-.239726.53555-.219407.65084.04023.22827.258754.35933.270574.052.0043-.1122.05493-.27903.135286-.31978.04922-.025.28904-.0799.523802.13346.04562.0414.08872.0906.129216.14732.119126-.11872.240634-.23494.367703-.34578-.01373-.0175-.02719-.0348-.04163-.052-.218025-.2594-.505958-.33709-.751014-.33886zm1.149936 1.06511c-.157892.13061-.306079.26964-.441416.42292.000056.00028-.000055.0006 0 .00087.03756.2009298.06251.4337998.07198.7011098.01335.37676.045.67443.09019.91343.193852-.0112.379224-.10044.538545-.21146-.0076-.0339-.01521-.0676-.02168-.10139-.05858-.306-.0019-1.03378-.237619-1.7254798zm2.467247-8.53815c-.03532.00043-.07093.006-.104934.0121-.519488.0924-1.013135.32259-1.470809.58498-.231694.13284-.293813.18898-.406727.43939-.246581.54685-.450762 1.23469-.594047 1.69861-.07688.24894-.02328.29185.0555.39606.831318 1.09958 1.890103 2.29946 2.448168 3.25424.05242.0897.120764.25877.290224-.0571.01863-.0439.02256-.0309.04038.003.168272.31176.236348.14346.288597.0541.558066-.95478 1.61685-2.15466 2.448168-3.25424.07879-.10421.132384-.14712.0555-.39606-.143284-.46392-.347465-1.15176-.594047-1.69861-.112914-.25041-.175033-.30655-.406727-.43939-.457674-.26239-.951321-.49262-1.470809-.58498-.068-.0121-.143546-.0214-.207266.005-.04011.0168-.06836.0611-.110251.0771-.01394.005-.02999.009-.04444.005-.04546-.0117-.07204-.0649-.114146-.0825-.03186-.0133-.06702-.0178-.102332-.0173z"/></svg>